<svg id="Capa_1" enable-background="new 0 0 512 512" height="512" viewBox="0 0 512 512" width="512" xmlns="http://www.w3.org/2000/svg"><g><g><g><g><g><g><path d="m256 433.662c-4.269 0-7.729-3.461-7.729-7.729v-182.478c0-4.269 3.461-7.729 7.729-7.729 4.269 0 7.729 3.461 7.729 7.729v182.477c0 4.269-3.46 7.73-7.729 7.73z" fill="#77ceaf"/></g></g></g><g fill="#8fddc1"><path d="m360.315 294.782c2.207-2.986-.459-7.107-4.088-6.318-18.262 3.971-56.257 13.161-73.206 24.127-22.742 14.714-27.021 45.199-27.021 45.199s29.561 8.592 52.304-6.122c16.949-10.966 40.904-41.856 52.011-56.886z"/><path d="m151.685 294.782c-2.207-2.986.459-7.107 4.088-6.318 18.262 3.971 56.257 13.161 73.206 24.127 22.743 14.714 27.022 45.2 27.022 45.2s-29.561 8.592-52.304-6.122c-16.95-10.967-40.905-41.857-52.012-56.887z"/></g></g></g><g><g><g><g><g><g><path d="m291.886 496.579 29.577-92.756h-189.539l29.577 92.756c2.929 9.185 11.463 15.421 21.104 15.421h88.178c9.64 0 18.174-6.236 21.103-15.421z" fill="#ddb7a0"/><path d="m314.463 403.823-29.577 92.756c-2.929 9.185-11.463 15.421-21.103 15.421h65.613c9.641 0 18.174-6.236 21.103-15.421l29.577-92.756z" fill="#d6a889"/><path d="m350.276 405.697v-8.697l-7-6.859h-224.259c-8.591 0-15.556 6.964-15.556 15.556 0 8.591 6.964 15.555 15.556 15.555h215.703c8.591 0 15.556-6.964 15.556-15.555z" fill="#cc9675"/><path d="m392.983 390.141h-49.707v15.556c0 8.591-6.964 15.556-15.556 15.556h65.263c8.591 0 15.556-6.964 15.556-15.556 0-8.591-6.965-15.556-15.556-15.556z" fill="#c4845c"/></g></g></g></g></g></g><g><g><g fill="#ffd064"><path d="m256 283.561c-13.279 0-24.044-10.765-24.044-24.044v-235.473c0-13.279 10.765-24.044 24.044-24.044 13.279 0 24.044 10.765 24.044 24.044v235.473c0 13.279-10.765 24.044-24.044 24.044z"/><path d="m155.746 242.035c-9.39-9.39-9.39-24.613 0-34.003l166.505-166.505c9.39-9.39 24.613-9.39 34.003 0 9.39 9.39 9.39 24.613 0 34.003l-166.505 166.505c-9.39 9.389-24.613 9.389-34.003 0z"/><path d="m114.219 141.781c0-13.279 10.765-24.044 24.044-24.044h235.473c13.279 0 24.044 10.765 24.044 24.044 0 13.279-10.765 24.044-24.044 24.044h-235.473c-13.279-.001-24.044-10.765-24.044-24.044z"/><path d="m155.746 41.527c9.39-9.39 24.613-9.39 34.003 0l166.505 166.505c9.39 9.39 9.39 24.613 0 34.003-9.39 9.39-24.613 9.39-34.003 0l-166.505-166.505c-9.39-9.39-9.39-24.614 0-34.003z"/></g><path d="m201.451 272.647c-12.257-5.109-18.051-19.187-12.942-31.444l90.597-217.347c5.109-12.257 19.187-18.051 31.444-12.942 12.257 5.109 18.051 19.187 12.942 31.444l-90.597 217.347c-5.11 12.257-19.187 18.051-31.444 12.942z" fill="#ffe07d"/><path d="m124.891 195.745c-5.054-12.28.803-26.331 13.083-31.386l217.75-89.626c12.28-5.054 26.331.803 31.386 13.083 5.054 12.28-.803 26.331-13.083 31.386l-217.75 89.626c-12.28 5.054-26.332-.803-31.386-13.083z" fill="#ffe07d"/><path d="m125.133 87.231c5.109-12.257 19.187-18.051 31.444-12.942l217.347 90.597c12.257 5.109 18.051 19.187 12.942 31.444-5.109 12.257-19.187 18.051-31.444 12.942l-217.347-90.597c-12.256-5.109-18.051-19.187-12.942-31.444z" fill="#ffe07d"/><path d="m202.035 10.672c12.28-5.054 26.331.803 31.386 13.082l89.626 217.75c5.054 12.28-.803 26.331-13.083 31.386-12.28 5.054-26.331-.803-31.386-13.083l-89.626-217.75c-5.053-12.279.804-26.331 13.083-31.385z" fill="#ffe07d"/><g><circle cx="256" cy="141.781" fill="#f4fbff" r="100.254"/><path d="m256 41.527c-11.83 0-23.179 2.055-33.716 5.817 38.781 13.847 66.538 50.898 66.538 94.436s-27.757 80.589-66.538 94.436c10.537 3.762 21.886 5.817 33.716 5.817 55.369 0 100.254-44.885 100.254-100.254 0-55.367-44.885-100.252-100.254-100.252z" fill="#e4f6ff"/><path d="m269.058 134.493c-1.962-.694-3.968-1.418-5.971-2.171v-32.834c4.781 1.297 7.619 3.694 7.885 3.926 3.141 2.84 7.988 2.626 10.864-.494 2.894-3.137 2.697-8.028-.441-10.922-.408-.377-7.191-6.492-18.309-8.304v-6.456c0-4.269-3.461-7.729-7.729-7.729-4.269 0-7.729 3.461-7.729 7.729v7.028c-.937.217-1.889.468-2.856.759-10.463 3.152-18.279 12.099-20.4 23.351-1.937 10.278 1.368 20.198 8.624 25.89 3.732 2.927 8.341 5.608 14.632 8.429v42.067c-5.365-.463-8.89-1.873-14.816-5.75-3.573-2.337-8.363-1.336-10.7 2.237-2.337 3.572-1.336 8.363 2.237 10.7 9.086 5.944 15.344 7.801 23.279 8.306v7.235c0 4.269 3.461 7.729 7.729 7.729 4.269 0 7.729-3.461 7.729-7.729v-7.873c16.083-3.36 25.479-16.716 27.578-29.197 2.728-16.221-5.754-30.323-21.606-35.927zm-26.52-12.39c-2.657-2.084-3.825-6.348-2.974-10.864.743-3.941 3.245-8.642 8.065-10.814v25.008c-1.903-1.07-3.626-2.18-5.091-3.33zm32.882 45.754c-1.04 6.186-5.228 12.749-12.333 15.617v-34.696c.271.096.544.193.819.291 12.851 4.541 12.062 15.528 11.514 18.788z" fill="#e8ae4d"/></g></g></g></g></svg>